<svg width="180" height="64" viewBox="0 0 47.625 16.933" xmlns="http://www.w3.org/2000/svg">
 <g transform="translate(-6.8325)">
  <path d="m50.783 6.773a8.0905 8.0988 0 0 0-0.38874-0.12265c0.02194-0.089719 0.04213-0.17837 0.06004-0.26546 0.2943-1.43 0.10191-2.5821-0.55523-2.9614-0.63006-0.36364-1.6605 0.015538-2.7011 0.92213a8.0782 8.0865 0 0 0-0.30075 0.27618 7.3534 7.3609 0 0 0-0.20008-0.18498c-1.0907-0.96936-2.1838-1.3779-2.8403-0.99751-0.62949 0.36477-0.81589 1.4478-0.55094 2.8031a8.0661 8.0744 0 0 0 0.08927 0.40048c-0.15474 0.044009-0.30406 0.090862-0.44696 0.14073-1.2787 0.44628-2.0953 1.1457-2.0953 1.8711 0 0.74924 0.87665 1.5007 2.2085 1.9564a6.8653 6.8723 0 0 0 0.32652 0.10225 7.9007 7.9088 0 0 0-0.09483 0.43155c-0.25259 1.3318-0.05535 2.3892 0.57245 2.7517 0.64841 0.37431 1.7367-0.01047 2.7964-0.93767a6.8675 6.8745 0 0 0 0.25202-0.23249 7.9289 7.937 0 0 0 0.32647 0.29818c1.0265 0.88416 2.0402 1.2412 2.6674 0.87774 0.6478-0.3754 0.85835-1.5114 0.585-2.8934a6.8415 6.8485 0 0 0-0.07241-0.32312c0.07643-0.02268 0.15144-0.046 0.22456-0.07028 1.3846-0.45918 2.2854-1.2016 2.2854-1.9608 0-0.72808-0.84297-1.4322-2.1474-1.8817zm-0.30028 3.3523c-0.06605 0.02187-0.13379 0.04297-0.20286 0.06353-0.15285-0.4844-0.35912-0.99944-0.61156-1.5316 0.24089-0.51948 0.43922-1.028 0.58778-1.5092 0.12357 0.035801 0.24344 0.073534 0.35902 0.11334 1.1176 0.38517 1.7994 0.95458 1.7994 1.3934 0 0.46735-0.73626 1.0741-1.9317 1.4706zm-0.49602 0.9839c0.12087 0.6111 0.13809 1.1636 0.05803 1.5956-0.0719 0.38815-0.21654 0.6469-0.39544 0.75056-0.38058 0.22054-1.1945-0.06612-2.0724-0.8223a7.394 7.4015 0 0 1-0.30369-0.27722c0.34034-0.37256 0.68044-0.80567 1.0124-1.2867 0.58387-0.05185 1.1355-0.13667 1.6357-0.25242a6.3298 6.3363 0 0 1 0.06539 0.29247zm-5.0163 2.3081c-0.37186 0.13143-0.66804 0.13521-0.84707 0.0319-0.38096-0.21993-0.53933-1.069-0.32331-2.2079a7.4032 7.4108 0 0 1 0.08817-0.40137c0.4947 0.10957 1.0423 0.18833 1.6275 0.23584 0.33421 0.4707 0.68412 0.90334 1.0368 1.2822a6.3533 6.3598 0 0 1-0.23009 0.21214c-0.46861 0.41001-0.93817 0.70093-1.352 0.84723zm-1.7421-3.2949c-0.58892-0.20151-1.0753-0.46338-1.4086-0.74914-0.29958-0.25677-0.45078-0.51174-0.45078-0.71859 0-0.44024 0.65563-1.0018 1.7492-1.3834 0.13272-0.046283 0.2716-0.08996 0.41573-0.13096 0.15116 0.49209 0.3494 1.0066 0.58864 1.5269-0.24235 0.52798-0.44342 1.0507-0.59604 1.5486a6.3557 6.3622 0 0 1-0.29807-0.09345zm0.58396-3.9793c-0.22697-1.1611-0.07624-2.037 0.30312-2.2569 0.40403-0.23415 1.2975 0.099692 2.2392 0.93673a6.8086 6.8155 0 0 1 0.18121 0.16742c-0.35091 0.37719-0.69761 0.80662-1.0288 1.2745-0.56802 0.052698-1.1117 0.13733-1.6116 0.25072a7.5645 7.5723 0 0 1-0.08303-0.37247zm5.2097 1.2878a16.408 16.425 0 0 0-0.36728-0.60463c0.38535 0.048785 0.75456 0.11353 1.1013 0.19268-0.10408 0.33398-0.23381 0.68312-0.38653 1.0411a17.982 18 0 0 0-0.34746-0.62914zm-2.1245-2.0714c0.23796 0.25809 0.4763 0.54621 0.71073 0.85885a15.193 15.209 0 0 0-1.4275-2.833e-4c0.23466-0.30976 0.47503-0.5975 0.71672-0.85857zm-2.1381 2.0749a15.246 15.262 0 0 0-0.34095 0.62518c-0.15021-0.3567-0.27877-0.70744-0.38374-1.0461 0.34458-0.077168 0.71205-0.14026 1.0949-0.18815a15.169 15.184 0 0 0-0.37025 0.60907zm0.38124 3.0863c-0.39558-0.04421-0.76857-0.10403-1.1131-0.17913 0.10662-0.34475 0.23801-0.70296 0.39148-1.0673a15.153 15.168 0 0 0 0.34237 0.62555c0.12239 0.21157 0.2491 0.4188 0.37921 0.62088zm1.7711 1.4654c-0.24457-0.26409-0.48848-0.55627-0.72668-0.87052 0.23126 0.0091 0.46701 0.01363 0.70662 0.01363 0.24617 0 0.48952-0.0055 0.72904-0.01621-0.23518 0.31991-0.47262 0.61252-0.70898 0.87302zm2.4626-2.7305c0.16144 0.36836 0.2975 0.72468 0.40554 1.0635-0.35015 0.08-0.72823 0.14442-1.1266 0.19225a18.042 18.06 0 0 0 0.37077-0.61516 16.39 16.406 0 0 0 0.35029-0.64062zm-0.79721 0.38258a16.916 16.933 0 0 1-0.57939 0.93578 15.54 15.556 0 0 1-1.106 0.03886c-0.37586 0-0.74144-0.01171-1.0935-0.03457a14.635 14.65 0 0 1-0.59033-0.93725h4.7e-5a14.503 14.518 0 0 1-0.51532-0.97413 14.638 14.653 0 0 1 0.51376-0.9746l-4.6e-5 4.8e-5a14.499 14.513 0 0 1 0.58562-0.93322c0.35916-0.0272 0.72748-0.041367 1.0997-0.041367h4.5e-5c0.37393 0 0.74272 0.014304 1.1018 0.041697a15.538 15.554 0 0 1 0.58194 0.93011 16.913 16.93 0 0 1 0.52065 0.97002 15.544 15.56 0 0 1-0.51895 0.97862zm1.0643-5.7674c0.4044 0.23348 0.5617 1.175 0.3076 2.4097-0.01622 0.078767-0.03444 0.15901-0.05424 0.24038-0.50113-0.11579-1.0452-0.20189-1.6149-0.2554-0.33185-0.47306-0.67572-0.90315-1.0209-1.2755a7.5856 7.5934 0 0 1 0.27778-0.25502c0.89166-0.77672 1.725-1.0834 2.1047-0.86423zm-2.7497 3.7042c0.59562 0 1.0785 0.48336 1.0785 1.0796 0 0.59623-0.48286 1.0796-1.0785 1.0796-0.59562 0-1.0785-0.48336-1.0785-1.0796 0-0.59622 0.48286-1.0796 1.0785-1.0796z" fill="#00d8ff" stroke-width=".047202"/>
  <text x="7.9033933" y="7.6031532" fill="#f9f9f9" font-family="Sans" font-size="6.35px" font-weight="bold" stroke-width="1.0001" style="line-height:1" xml:space="preserve"><tspan x="7.9033933" y="7.6031532" style="line-height:1">REACT</tspan><tspan x="7.9033933" y="13.953154" style="line-height:1">STARTER</tspan></text>
 </g>
</svg>
